# xmcd
#
# Track frame offsets:
#	150
#	21880
#	45873
#	62783
#	99479
#	134620
#	162613
#	176730
#	193574
#	232006
#	263024
#
# Disc length: 3732 seconds
#
# Revision: 1
# Processed by: cddbd v1.5.2PL0 Copyright (c) Steve Scherf et al.
# Submitted via: audiograbber 1.83.01
#
DISCID=960e920b
DTITLE=Johnny Gallagher and The Boxtie Band - The Studio Sessions 2012 featuring 
DTITLE=Sean Gallagher
DYEAR=2012
DGENRE=Blues
TTITLE0=Sick and Tired
TTITLE1=Mystery Mind
TTITLE2=Spending all my Money
TTITLE3=Stormy Monday
TTITLE4=Shake that Tambourine
TTITLE5=Peace of Mind
TTITLE6=Folsum Prison Blues
TTITLE7=Restless Mover
TTITLE8=Mr George
TTITLE9=The Loser
TTITLE10=A Boy named Sue
EXTD=
EXTT0=
EXTT1=
EXTT2=
EXTT3=
EXTT4=
EXTT5=
EXTT6=
EXTT7=
EXTT8=
EXTT9=
EXTT10=
PLAYORDER=
